<svg width="24" height="24" viewBox="0 0 24 24" fill="none" xmlns="http://www.w3.org/2000/svg">
<path d="M0 12.5234V11.7969C0.642501 11.7969 1.09071 11.6602 1.34463 11.3867C1.6024 11.1133 1.73129 10.6562 1.73129 10.0156V8.14063C1.73129 7.60156 1.7813 7.13477 1.88133 6.74023C1.98521 6.3457 2.15257 6.01953 2.38341 5.76172C2.61425 5.50391 2.92203 5.3125 3.30676 5.1875C3.69149 5.0625 4.16664 5 4.73219 5V6.14844C4.2859 6.14844 3.93387 6.21875 3.6761 6.35938C3.42218 6.5 3.24136 6.71875 3.13363 7.01563C3.02976 7.30859 2.97782 7.68359 2.97782 8.14063V10.4844C2.97782 10.7891 2.93742 11.0664 2.85663 11.3164C2.77968 11.5664 2.63541 11.7812 2.42381 11.9609C2.2122 12.1406 1.91019 12.2793 1.51776 12.377C1.12919 12.4746 0.623264 12.5234 0 12.5234ZM4.73219 20C4.16664 20 3.69149 19.9375 3.30676 19.8125C2.92203 19.6875 2.61425 19.4961 2.38341 19.2383C2.15257 18.9805 1.98521 18.6543 1.88133 18.2598C1.7813 17.8652 1.73129 17.3984 1.73129 16.8594V14.9844C1.73129 14.3438 1.6024 13.8867 1.34463 13.6133C1.09071 13.3398 0.642501 13.2031 0 13.2031V12.4766C0.623264 12.4766 1.12919 12.5254 1.51776 12.623C1.91019 12.7207 2.2122 12.8594 2.42381 13.0391C2.63541 13.2188 2.77968 13.4336 2.85663 13.6836C2.93742 13.9336 2.97782 14.2109 2.97782 14.5156V16.8594C2.97782 17.3164 3.02976 17.6914 3.13363 17.9844C3.24136 18.2773 3.42218 18.4941 3.6761 18.6348C3.93387 18.7793 4.2859 18.8516 4.73219 18.8516V20ZM0 13.2031V11.7969H1.36195V13.2031H0Z" fill="black"/>
<path d="M7.52678 17.6562C7.24208 17.6562 6.99778 17.5527 6.79387 17.3457C6.58996 17.1387 6.48801 16.8906 6.48801 16.6016C6.48801 16.3125 6.58996 16.0645 6.79387 15.8574C6.99778 15.6504 7.24208 15.5469 7.52678 15.5469C7.81148 15.5469 8.05579 15.6504 8.25969 15.8574C8.4636 16.0645 8.56555 16.3125 8.56555 16.6016C8.56555 16.793 8.51746 16.9687 8.42128 17.1289C8.32895 17.2891 8.20391 17.418 8.04617 17.5156C7.89228 17.6094 7.71915 17.6562 7.52678 17.6562Z" fill="black"/>
<path d="M12.0022 17.6562C11.7175 17.6562 11.4732 17.5527 11.2693 17.3457C11.0653 17.1387 10.9634 16.8906 10.9634 16.6016C10.9634 16.3125 11.0653 16.0645 11.2693 15.8574C11.4732 15.6504 11.7175 15.5469 12.0022 15.5469C12.2869 15.5469 12.5312 15.6504 12.7351 15.8574C12.939 16.0645 13.0409 16.3125 13.0409 16.6016C13.0409 16.793 12.9928 16.9687 12.8967 17.1289C12.8043 17.2891 12.6793 17.418 12.5216 17.5156C12.3677 17.6094 12.1945 17.6562 12.0022 17.6562Z" fill="black"/>
<path d="M16.4775 17.6562C16.1928 17.6562 15.9485 17.5527 15.7446 17.3457C15.5407 17.1387 15.4388 16.8906 15.4388 16.6016C15.4388 16.3125 15.5407 16.0645 15.7446 15.8574C15.9485 15.6504 16.1928 15.5469 16.4775 15.5469C16.7622 15.5469 17.0066 15.6504 17.2105 15.8574C17.4144 16.0645 17.5163 16.3125 17.5163 16.6016C17.5163 16.793 17.4682 16.9687 17.372 17.1289C17.2797 17.2891 17.1547 17.418 16.9969 17.5156C16.843 17.6094 16.6699 17.6562 16.4775 17.6562Z" fill="black"/>
<path d="M24 12.4766V13.2031C23.3575 13.2031 22.9074 13.3398 22.6496 13.6133C22.3957 13.8867 22.2687 14.3438 22.2687 14.9844V16.8594C22.2687 17.3984 22.2168 17.8652 22.1129 18.2598C22.0129 18.6543 21.8474 18.9805 21.6166 19.2383C21.3858 19.4961 21.078 19.6875 20.6932 19.8125C20.3085 19.9375 19.8334 20 19.2678 20V18.8516C19.7141 18.8516 20.0642 18.7793 20.3181 18.6348C20.5759 18.4941 20.7567 18.2773 20.8606 17.9844C20.9683 17.6914 21.0222 17.3164 21.0222 16.8594V14.5156C21.0222 14.2109 21.0607 13.9336 21.1376 13.6836C21.2184 13.4336 21.3646 13.2188 21.5762 13.0391C21.7878 12.8594 22.0879 12.7207 22.4765 12.623C22.8689 12.5254 23.3767 12.4766 24 12.4766ZM19.2678 5C19.8334 5 20.3085 5.0625 20.6932 5.1875C21.078 5.3125 21.3858 5.50391 21.6166 5.76172C21.8474 6.01953 22.0129 6.3457 22.1129 6.74023C22.2168 7.13477 22.2687 7.60156 22.2687 8.14063V10.0156C22.2687 10.6562 22.3957 11.1133 22.6496 11.3867C22.9074 11.6602 23.3575 11.7969 24 11.7969V12.5234C23.3767 12.5234 22.8689 12.4746 22.4765 12.377C22.0879 12.2793 21.7878 12.1406 21.5762 11.9609C21.3646 11.7812 21.2184 11.5664 21.1376 11.3164C21.0607 11.0664 21.0222 10.7891 21.0222 10.4844V8.14063C21.0222 7.68359 20.9683 7.30859 20.8606 7.01563C20.7567 6.71875 20.5759 6.5 20.3181 6.35938C20.0642 6.21875 19.7141 6.14844 19.2678 6.14844V5ZM24 11.7969V13.2031H22.6381V11.7969H24Z" fill="black"/>
</svg>
